<svg width="20" height="19" viewBox="0 0 20 19" fill="none" xmlns="http://www.w3.org/2000/svg">
<path d="M1.6665 1.58325H3.11651C4.01651 1.58325 4.72484 2.3195 4.64984 3.16659L3.95817 11.0516C3.8415 12.342 4.9165 13.4503 6.28317 13.4503H15.1582C16.3582 13.4503 17.4082 12.5162 17.4998 11.3841L17.9498 5.44659C18.0498 4.13242 16.9998 3.06366 15.6082 3.06366H4.84984" stroke="#292D32" stroke-width="1.5" stroke-miterlimit="10" stroke-linecap="round" stroke-linejoin="round"/>
<path d="M13.5417 17.4167C14.117 17.4167 14.5833 16.9736 14.5833 16.4271C14.5833 15.8806 14.117 15.4375 13.5417 15.4375C12.9664 15.4375 12.5 15.8806 12.5 16.4271C12.5 16.9736 12.9664 17.4167 13.5417 17.4167Z" stroke="#292D32" stroke-width="1.5" stroke-miterlimit="10" stroke-linecap="round" stroke-linejoin="round"/>
<path d="M6.87516 17.4167C7.45046 17.4167 7.91683 16.9736 7.91683 16.4271C7.91683 15.8806 7.45046 15.4375 6.87516 15.4375C6.29987 15.4375 5.8335 15.8806 5.8335 16.4271C5.8335 16.9736 6.29987 17.4167 6.87516 17.4167Z" stroke="#292D32" stroke-width="1.5" stroke-miterlimit="10" stroke-linecap="round" stroke-linejoin="round"/>
<path d="M7.5 6.33325H17.5" stroke="#292D32" stroke-width="1.5" stroke-miterlimit="10" stroke-linecap="round" stroke-linejoin="round"/>
</svg>
