<svg width="32" height="32" viewBox="0 0 32 32" fill="none" xmlns="http://www.w3.org/2000/svg">
<path d="M2.66675 13.3333H29.3334" stroke="#F7D117" stroke-width="1.5" stroke-miterlimit="10" stroke-linecap="round" stroke-linejoin="round"/>
<path d="M15.3978 27.333H8.58447C3.85114 27.333 2.65112 26.1597 2.65112 21.4797V10.5197C2.65112 6.27969 3.63783 4.91969 7.35783 4.70636C7.73116 4.69303 8.14447 4.67969 8.58447 4.67969H23.3978C28.1311 4.67969 29.3311 5.85302 29.3311 10.533V16.413" stroke="#F7D117" stroke-width="1.5" stroke-linecap="round" stroke-linejoin="round"/>
<path d="M8 21.3333H13.3333" stroke="#F7D117" stroke-width="1.5" stroke-miterlimit="10" stroke-linecap="round" stroke-linejoin="round"/>
<path d="M29.3334 24C29.3334 25 29.0534 25.9467 28.5601 26.7467C27.6401 28.2933 25.9467 29.3333 24.0001 29.3333C22.0534 29.3333 20.3601 28.2933 19.4401 26.7467C18.9468 25.9467 18.6667 25 18.6667 24C18.6667 21.0533 21.0534 18.6667 24.0001 18.6667C26.9467 18.6667 29.3334 21.0533 29.3334 24Z" stroke="#F7D117" stroke-width="1.5" stroke-miterlimit="10" stroke-linecap="round" stroke-linejoin="round"/>
<path d="M21.9219 23.9994L23.2419 25.3194L26.0819 22.6927" stroke="#F7D117" stroke-width="1.5" stroke-linecap="round" stroke-linejoin="round"/>
</svg>
